{"title":"True.Grit.2010.(1080p).BrRip.x265.(HEVC).DTS.5.1.mkv","uid":11170744,"size":4955794598,"categoryP":"video","categoryS":"hd___movies","magnet":"?xt=urn:btih:aa0d2bf89dca580e6260e620b32666d64943fcb5&amp;dn=True.Grit.2010.%281080p%29.BrRip.x265.%28HEVC%29.DTS.5.1.mkv&amp;tr=udp%3A%2F%2Ftracker.openbittorrent.com%3A80&amp;tr=udp%3A%2F%2Fopen.demonii.com%3A1337&amp;tr=udp%3A%2F%2Ftracker.coppersurfer.tk%3A6969&amp;tr=udp%3A%2F%2Fexodus.desync.com%3A6969","seeders":1,"leechers":0,"uploader":"gorbab","files":1,"time":1412698680,"description":"NOTE: H.265/High Efficiency Video Coding (HEVC) is a video compression standard, a successor to H.264/MPEG-4 AVC (Advanced Video Coding), which provides substantially improved video quality in terms of noise level, color spaces, and dynamic range at the same bit rate.\n\nUse the latest nightly version of VLC or MPC-HC to play back!\n\nIf you want more info about HEVC, you can find it here:\n &lt;a href=&quot;\nhttps://en.wikipedia.org/wiki/High_Efficiency_Video_Coding&quot; rel=&quot;nofollow&quot; target=&quot;_NEW&quot;&gt;\nhttps://en.wikipedia.org/wiki/High_Efficiency_Video_Coding&lt;/a&gt;\n\n\nThe True Grit (2011)\n\nVideo\nID                                       : 1\nFormat                                   : HEVC\nFormat/Info                              : High Efficiency Video Coding\nCodec ID                                 : V_MPEGH/ISO/HEVC\nDuration                                 : 1h 50mn\nBit rate                                 : 4 360 Kbps\nWidth                                    : 1 920 pixels\nHeight                                   : 816 pixels\nDisplay aspect ratio                     : 2.35:1\nFrame rate mode                          : Constant\nFrame rate                               : 23.976 fps\nBits/(Pixel*Frame)                       : 0.116\nStream size                              : 3.36 GiB (73%)\nLanguage                                 : English\nDefault                                  : Yes\nForced                                   : No\n\nAudio\nID                                       : 2\nFormat                                   : DTS\nFormat/Info                              : Digital Theater Systems\nMode                                     : 16\nFormat settings, Endianness              : Big\nCodec ID                                 : A_DTS\nDuration                                 : 1h 50mn\nBit rate mode                            : Constant\nBit rate                                 : 1 509 Kbps\nChannel(s)                               : 6 channels\nChannel positions                        : Front: L C R, Side: L R, LFE\nSampling rate                            : 48.0 KHz\nBit depth                                : 24 bits\nCompression mode                         : Lossy\nStream size                              : 1.16 GiB (25%)\nLanguage                                 : English\nDefault                                  : Yes\nForced                                   : No\n\nText\nID                                       : 3\nFormat                                   : UTF-8\nCodec ID                                 : S_TEXT/UTF8\nCodec ID/Info                            : UTF-8 Plain Text\nLanguage                                 : English\nDefault                                  : Yes\nForced                                   : No","torrent":{"xt":"urn:btih:aa0d2bf89dca580e6260e620b32666d64943fcb5","amp;dn":"True.Grit.2010.%281080p%29.BrRip.x265.%28HEVC%29.DTS.5.1.mkv","amp;tr":["udp%3A%2F%2Ftracker.openbittorrent.com%3A80","udp%3A%2F%2Fopen.demonii.com%3A1337","udp%3A%2F%2Ftracker.coppersurfer.tk%3A6969","udp%3A%2F%2Fexodus.desync.com%3A6969"],"infoHash":"aa0d2bf89dca580e6260e620b32666d64943fcb5","infoHashBuffer":{"type":"Buffer","data":[170,13,43,248,157,202,88,14,98,96,230,32,179,38,102,214,73,67,252,181]},"announce":[],"urlList":[]}}